<?xml version="1.0" standalone="no"?>
<!DOCTYPE svg PUBLIC "-//W3C//DTD SVG 20010904//EN"
 "http://www.w3.org/TR/2001/REC-SVG-20010904/DTD/svg10.dtd">
<svg version="1.0" xmlns="http://www.w3.org/2000/svg"
 width="64.000000pt" height="64.000000pt" viewBox="0 0 64.000000 64.000000"
 preserveAspectRatio="xMidYMid meet">

<g transform="translate(0.000000,64.000000) scale(0.100000,-0.100000)"
fill="#000000" stroke="none">
<path d="M5 320 l0 -315 178 0 c97 0 177 3 177 8 0 4 -5 7 -11 7 -6 0 -8 8 -4
19 3 11 1 22 -4 26 -7 4 -8 -1 -5 -12 5 -15 4 -16 -5 -3 -9 12 -12 13 -20 1
-7 -11 -9 -11 -14 0 -5 12 -7 12 -15 0 -8 -11 -10 -11 -15 0 -5 12 -7 12 -15
0 -8 -11 -10 -11 -15 0 -5 12 -7 12 -15 0 -8 -11 -10 -11 -15 0 -5 12 -7 12
-15 0 -8 -11 -10 -11 -15 0 -5 12 -7 12 -15 0 -8 -11 -10 -11 -15 0 -5 12 -7
12 -15 0 -8 -11 -10 -11 -15 0 -5 12 -7 12 -15 0 -8 -11 -10 -11 -15 0 -5 12
-7 12 -15 0 -8 -11 -10 -11 -15 0 -4 10 -8 11 -14 3 -6 -9 -11 -8 -20 1 -10
11 -10 15 0 19 9 3 9 7 -2 14 -11 8 -11 10 0 15 12 5 12 7 0 15 -11 8 -11 10
0 15 12 5 12 7 0 15 -11 8 -11 10 0 15 12 5 12 7 0 15 -11 8 -11 10 0 15 12 5
12 7 0 15 -11 8 -11 10 0 15 12 5 12 7 0 15 -11 8 -11 10 0 15 12 5 12 7 0 15
-11 8 -11 10 0 15 12 5 12 7 0 15 -11 8 -11 10 0 15 12 5 12 7 0 15 -11 8 -11
10 0 15 12 5 12 7 0 15 -11 8 -11 10 0 15 12 5 12 7 0 15 -11 8 -11 10 0 15
12 5 12 7 0 15 -11 8 -11 10 0 15 12 5 12 7 0 15 -11 8 -11 10 0 15 12 5 12 7
0 15 -11 8 -11 10 0 15 12 5 12 7 0 15 -11 8 -11 10 0 15 12 5 12 7 0 15 -11
8 -11 10 0 15 12 5 12 7 0 15 -11 8 -11 10 0 15 10 4 11 8 3 14 -9 6 -8 11 2
21 9 8 14 9 14 2 0 -6 8 -10 18 -8 12 2 16 -3 14 -16 -2 -13 1 -17 11 -13 7 3
20 1 28 -4 10 -6 10 -9 2 -9 -7 0 -13 -5 -13 -10 0 -6 8 -10 18 -8 12 2 16 -3
14 -15 -2 -13 2 -17 15 -15 12 2 17 -2 15 -15 -2 -13 3 -16 20 -13 33 5 29 35
-7 69 -17 16 -22 25 -12 21 10 -3 17 -1 17 5 0 6 -6 12 -12 12 -7 1 -19 2 -27
3 -8 0 -16 8 -18 16 -4 13 -3 13 6 0 9 -12 12 -13 20 -1 7 11 9 11 14 0 5 -12
7 -12 15 0 8 11 10 11 15 0 4 -12 7 -11 16 1 8 12 11 12 11 1 0 -7 6 -11 14
-8 9 4 13 -2 12 -16 -1 -15 -7 -21 -20 -20 -11 1 -15 -2 -9 -8 10 -10 84 16
82 29 -1 4 -1 14 0 22 1 13 2 13 11 0 8 -12 11 -13 19 -1 7 11 9 11 14 0 5
-12 7 -12 15 0 8 11 10 11 15 0 5 -12 7 -12 15 0 8 11 10 11 15 0 5 -12 7 -12
15 0 8 11 10 11 15 0 5 -12 7 -12 15 0 8 11 10 11 15 0 5 -12 7 -12 15 0 8 11
10 11 15 0 5 -12 7 -12 15 0 8 11 10 11 15 0 5 -12 7 -12 15 0 8 11 11 11 16
0 4 -11 7 -11 12 -2 4 10 8 10 19 0 9 -9 10 -14 1 -19 -8 -6 -7 -10 3 -17 11
-7 11 -9 0 -14 -12 -5 -12 -7 0 -15 11 -8 11 -11 0 -16 -11 -5 -11 -7 -1 -12
6 -3 10 -10 7 -15 -4 -5 1 -6 9 -3 12 4 13 -1 6 -30 -4 -21 -4 -34 1 -30 14 8
10 -8 -4 -20 -17 -14 -61 -86 -52 -86 3 0 17 12 31 27 13 14 27 23 31 19 4 -4
1 -11 -6 -15 -11 -7 -11 -10 0 -14 12 -5 12 -7 0 -15 -11 -8 -11 -10 0 -14 8
-3 10 -9 6 -14 -4 -5 -12 -2 -17 6 -5 8 -12 11 -17 7 -4 -5 -1 -12 6 -16 11
-7 11 -10 0 -14 -12 -5 -12 -7 0 -15 11 -8 11 -10 0 -15 -12 -5 -12 -7 0 -15
11 -8 11 -10 0 -15 -12 -5 -12 -7 0 -15 11 -8 11 -11 0 -16 -12 -5 -12 -7 0
-12 11 -5 11 -8 0 -15 -12 -8 -12 -10 0 -18 11 -7 11 -9 0 -14 -12 -5 -12 -7
0 -15 11 -8 11 -10 0 -15 -14 -5 -6 -15 26 -32 6 -3 5 -7 -3 -11 -10 -5 -9
-10 4 -25 25 -28 3 -50 -25 -25 -15 13 -20 14 -24 4 -2 -7 -8 -9 -13 -5 -5 4
-2 12 6 17 8 5 11 12 7 16 -10 10 -19 -1 -22 -28 -2 -21 1 -23 44 -24 l46 0 0
315 0 316 -315 0 -315 1 0 -316z m616 303 c0 -5 2 -31 2 -59 2 -38 -1 -50 -10
-47 -17 7 -17 23 0 23 8 0 7 4 -3 11 -12 9 -13 12 -1 16 11 5 11 7 0 14 -12 8
-11 11 1 19 10 6 11 10 3 10 -7 0 -13 5 -13 10 0 11 20 14 21 3z m5 -211 c0
-10 -8 -18 -18 -18 -22 0 -22 1 -2 20 19 20 20 20 20 -2z m-1 -211 c0 -83 -3
-107 -12 -104 -7 3 -13 9 -13 14 0 5 6 9 13 9 8 0 7 4 -3 11 -12 9 -13 12 -1
16 11 5 11 7 0 15 -12 8 -12 10 0 15 11 5 11 7 0 14 -12 8 -12 10 0 18 11 7
11 10 0 15 -12 5 -12 7 0 12 11 5 11 8 0 16 -12 8 -12 10 0 15 11 5 11 7 0 14
-12 8 -11 11 1 19 8 5 15 10 15 10 0 0 0 -49 0 -109z m-595 -173 c0 -9 4 -8
11 2 9 12 12 13 16 1 5 -11 7 -11 14 0 8 12 10 12 18 0 7 -11 10 -11 15 0 5
12 7 12 12 0 5 -11 8 -11 16 0 8 12 10 12 15 0 5 -11 7 -11 15 0 8 12 10 12
15 0 5 -11 7 -11 15 0 8 12 10 12 15 0 5 -11 7 -11 15 0 8 12 10 12 15 0 5
-11 7 -11 15 0 8 12 10 12 15 0 5 -11 7 -11 14 0 8 12 11 11 19 -1 6 -10 10
-11 10 -2 0 6 4 12 9 12 5 0 11 -6 14 -12 3 -10 -30 -13 -152 -11 -86 0 -159
1 -163 2 -12 2 -10 21 2 21 6 0 10 -6 10 -12z"/>
<path d="M35 335 l0 -270 141 1 c77 0 145 4 152 8 12 7 7 51 -9 72 -5 6 -5 15
-1 19 4 5 1 5 -6 1 -8 -5 -9 -13 -3 -24 4 -9 6 -23 4 -29 -3 -7 0 -13 7 -13 7
0 7 -5 -2 -14 -9 -10 -15 -11 -20 -2 -6 8 -10 7 -17 -3 -7 -11 -9 -11 -14 0
-5 12 -7 12 -15 0 -8 -11 -10 -11 -15 0 -5 12 -7 12 -15 0 -8 -11 -10 -11 -15
0 -5 12 -7 12 -15 0 -8 -11 -10 -11 -15 0 -5 12 -7 12 -15 0 -8 -11 -10 -11
-15 0 -5 12 -7 12 -15 0 -8 -11 -10 -11 -15 0 -5 12 -7 12 -15 0 -8 -11 -10
-11 -15 0 -4 10 -8 11 -14 3 -6 -9 -11 -8 -20 1 -10 11 -10 15 0 19 9 3 9 7
-2 14 -11 8 -11 10 0 15 12 5 12 7 0 15 -11 8 -11 10 0 15 12 5 12 7 0 15 -11
8 -11 10 0 15 12 5 12 7 0 15 -11 8 -11 10 0 15 12 5 12 7 0 15 -11 8 -11 10
0 15 12 5 12 7 0 15 -11 8 -11 10 0 15 12 5 12 7 0 15 -11 8 -11 10 0 15 12 5
12 7 0 15 -11 8 -11 10 0 15 12 5 12 7 0 15 -11 8 -11 10 0 15 12 5 12 7 0 15
-11 8 -11 10 0 15 12 5 12 7 0 15 -11 8 -11 10 0 15 12 5 12 7 0 15 -11 8 -11
10 0 15 12 5 12 7 0 15 -11 8 -11 10 0 15 12 5 12 7 0 15 -11 8 -11 10 0 15
12 5 12 7 0 15 -11 8 -11 10 0 15 12 4 11 7 -1 16 -8 6 -11 11 -6 11 16 0 136
-128 123 -133 -6 -2 -8 -8 -4 -13 10 -10 27 14 27 37 0 10 -7 16 -17 15 -11 0
-18 6 -17 15 1 9 -6 16 -15 15 -9 0 -15 6 -15 15 1 9 -6 16 -15 15 -9 0 -15 6
-15 15 1 9 -6 16 -15 15 -9 0 -16 6 -15 14 1 9 -6 16 -15 16 -14 0 -16 -29
-16 -271z"/>
<path d="M186 583 c3 -29 11 -39 21 -29 4 4 2 10 -4 14 -8 5 -7 11 2 19 11 10
14 10 18 0 2 -7 8 -9 12 -4 12 10 1 18 -28 21 -20 2 -23 -1 -21 -21z"/>
<path d="M312 593 c16 -19 -7 -40 -51 -48 -40 -7 -53 -34 -20 -42 10 -3 20
-15 22 -27 3 -17 5 -15 6 7 0 16 7 27 16 27 25 0 85 59 79 78 -5 15 -4 15 5 2
9 -12 12 -13 20 -1 7 11 10 11 15 0 5 -12 7 -12 12 0 5 11 8 11 15 0 8 -12 10
-12 18 0 7 11 9 11 14 0 5 -12 7 -12 15 0 8 11 10 11 15 0 5 -12 7 -12 15 0 8
11 11 11 16 0 4 -11 7 -11 12 -2 4 10 8 10 19 0 9 -9 10 -14 1 -20 -8 -6 -7
-10 3 -14 11 -5 11 -7 0 -14 -12 -8 -12 -10 0 -18 11 -7 11 -9 0 -14 -12 -4
-11 -7 1 -16 10 -7 11 -11 3 -11 -7 0 -13 -5 -13 -11 0 -6 6 -9 13 -6 8 2 12
26 12 73 l0 69 -137 0 c-108 0 -134 -3 -126 -12z"/>
<path d="M383 566 c-4 -5 -1 -6 5 -2 7 4 12 3 12 -2 0 -6 7 -12 14 -15 11 -4
13 -1 10 11 -5 15 -4 15 5 2 9 -12 12 -13 20 -1 7 11 9 11 14 0 5 -12 7 -12
15 0 8 11 11 11 16 0 4 -11 7 -11 12 -2 4 10 8 10 19 0 9 -9 10 -14 1 -19 -8
-6 -7 -10 3 -17 11 -7 11 -10 0 -15 -12 -5 -12 -7 0 -12 10 -5 10 -8 1 -14 -9
-6 -6 -14 10 -30 18 -18 24 -20 31 -9 6 10 9 10 9 2 0 -7 -8 -16 -17 -22 -10
-5 -15 -13 -11 -16 11 -11 25 3 37 35 9 28 9 30 -10 20 -30 -17 -37 -5 -35 57
l2 58 -79 0 c-43 0 -81 -4 -84 -9z"/>
<path d="M65 323 l0 -228 121 0 c121 0 121 0 118 23 -3 28 -11 38 -21 28 -4
-4 -2 -10 4 -14 8 -5 7 -11 -2 -19 -11 -10 -15 -10 -19 0 -3 9 -7 9 -14 -2 -8
-11 -10 -11 -15 0 -5 12 -7 12 -15 0 -8 -11 -10 -11 -15 0 -5 12 -7 12 -15 0
-8 -11 -10 -11 -15 0 -5 12 -7 12 -15 0 -8 -11 -10 -11 -15 0 -5 12 -7 12 -15
0 -8 -11 -11 -11 -16 0 -4 11 -7 11 -12 2 -4 -10 -8 -10 -19 0 -9 9 -10 14 -1
20 8 5 7 9 -3 16 -11 7 -11 9 0 14 12 5 12 7 0 15 -11 8 -11 10 0 15 12 5 12
7 0 15 -11 8 -11 10 0 15 12 5 12 7 0 15 -11 8 -11 10 0 15 12 5 12 7 0 15
-11 8 -11 10 0 15 12 5 12 7 0 15 -11 8 -11 10 0 15 12 5 12 7 0 15 -11 8 -11
10 0 15 12 5 12 7 0 15 -11 8 -11 10 0 15 12 5 12 7 0 15 -11 8 -11 10 0 15
12 5 12 7 0 15 -11 8 -11 10 0 15 12 5 12 7 0 15 -11 8 -11 10 0 15 12 5 12 7
0 15 -11 8 -11 10 0 15 12 4 11 7 -1 16 -8 6 -11 11 -6 11 16 0 76 -68 64 -72
-7 -3 -3 -13 11 -27 19 -19 25 -21 32 -10 7 12 9 11 10 -1 1 -8 1 -18 0 -23 0
-4 8 -16 19 -27 12 -12 18 -25 15 -30 -5 -8 28 -50 40 -50 2 0 -9 23 -25 50
-16 28 -32 61 -36 75 -4 17 -12 24 -27 22 -16 -1 -22 4 -23 19 -1 15 -76 104
-88 104 0 0 -1 -102 -1 -227z"/>
<path d="M394 533 c10 -13 22 -20 27 -18 4 3 16 -8 25 -25 10 -16 22 -30 26
-30 13 0 9 9 -12 30 -11 11 -17 26 -13 36 5 13 8 13 15 2 7 -10 11 -10 14 -1
4 10 8 10 19 0 9 -9 10 -14 1 -19 -8 -6 -7 -10 3 -17 11 -7 11 -9 0 -13 -10
-3 -6 -12 14 -30 20 -19 24 -28 15 -32 -10 -5 -10 -7 1 -12 11 -5 11 -8 0 -15
-12 -8 -12 -10 -1 -18 11 -7 10 -9 -3 -15 -9 -3 -13 -11 -9 -17 10 -17 34 18
27 39 -5 11 -3 13 8 7 12 -8 12 -6 1 8 -8 9 -11 21 -8 26 4 5 -2 18 -13 28
-13 13 -18 30 -17 58 l2 41 -39 -2 c-21 -1 -43 -6 -50 -13 -8 -8 -16 -6 -31 7
-21 17 -21 17 -2 -5z"/>
<path d="M336 513 c-11 -12 -6 -41 9 -53 21 -17 39 1 31 28 -7 21 -30 35 -40
25z"/>
<path d="M457 504 c7 -20 29 -23 29 -5 0 9 -8 17 -17 17 -9 0 -15 -6 -12 -12z"/>
<path d="M95 306 l0 -181 92 0 c50 0 89 4 86 8 -3 5 4 17 16 28 29 27 26 41
-9 62 -36 22 -39 14 -6 -16 l23 -22 -28 -27 c-18 -19 -29 -24 -32 -15 -4 9 -8
9 -15 -2 -8 -11 -10 -11 -15 0 -5 12 -7 12 -15 0 -8 -11 -10 -11 -15 0 -5 12
-7 12 -15 0 -8 -11 -11 -11 -16 0 -4 11 -7 11 -12 2 -4 -10 -8 -10 -19 0 -9 9
-10 14 -1 20 8 5 7 9 -3 16 -11 7 -11 9 0 14 12 5 12 7 0 15 -11 8 -11 10 0
15 12 5 12 7 0 15 -11 8 -11 10 0 15 12 5 12 7 0 15 -11 8 -11 10 0 15 12 5
12 7 0 15 -11 8 -11 10 0 15 12 5 12 7 1 15 -11 7 -11 10 2 15 22 9 20 28 -1
21 -15 -5 -16 -4 -3 5 12 9 13 12 1 20 -11 7 -11 9 0 14 12 4 11 7 -1 16 -8 6
-11 11 -6 11 17 0 106 -98 93 -104 -8 -3 -7 -8 6 -16 9 -6 17 -16 17 -23 0 -7
-4 -6 -10 3 -5 8 -12 11 -17 7 -11 -11 17 -26 35 -19 11 4 13 1 7 -8 -5 -9 -4
-11 3 -6 7 4 12 3 12 -2 0 -5 12 -14 28 -21 23 -10 25 -9 10 2 -10 8 -15 17
-11 20 3 4 0 7 -8 7 -19 0 -62 47 -55 59 4 5 -3 19 -15 30 -12 11 -18 24 -14
32 6 8 4 10 -4 4 -12 -7 -55 29 -57 50 -1 5 -2 15 -3 21 0 7 -7 14 -13 17 -10
3 -13 -36 -13 -177z"/>
<path d="M474 448 c-5 -7 -2 -8 6 -3 10 6 12 4 7 -8 -3 -9 0 -22 7 -29 7 -7
11 -18 9 -25 -2 -6 0 -13 4 -16 7 -4 9 39 4 74 -2 13 -30 18 -37 7z"/>
<path d="M295 410 c10 -11 20 -20 23 -20 3 0 -3 9 -13 20 -10 11 -20 20 -23
20 -3 0 3 -9 13 -20z"/>
<path d="M126 385 c4 -8 10 -15 16 -15 5 0 6 -5 2 -12 -4 -6 -3 -9 2 -6 5 3
15 -1 23 -9 12 -14 12 -15 0 -11 -29 10 -43 -22 -43 -101 l-1 -76 65 2 c82 1
77 0 84 18 3 9 -3 23 -14 32 -11 10 -20 24 -20 32 0 11 -3 12 -11 4 -9 -9 -5
-18 13 -35 21 -19 23 -25 13 -35 -11 -10 -15 -10 -19 0 -3 9 -7 9 -14 -2 -8
-11 -11 -11 -16 0 -5 12 -7 12 -12 0 -5 -11 -8 -11 -15 0 -7 10 -11 11 -16 3
-6 -9 -11 -8 -20 1 -10 11 -10 15 0 19 9 3 9 7 -2 14 -11 8 -11 10 0 15 12 5
12 7 0 15 -11 8 -11 10 0 15 12 5 11 8 -1 17 -13 10 -13 11 1 7 12 -4 15 1 13
18 -1 17 2 22 12 18 8 -3 11 -10 7 -16 -3 -5 -2 -7 4 -4 18 11 6 55 -23 82
-31 29 -36 31 -28 10z"/>
<path d="M343 383 c9 -2 23 -2 30 0 6 3 -1 5 -18 5 -16 0 -22 -2 -12 -5z"/>
<path d="M434 368 l-19 -23 23 19 c21 18 27 26 19 26 -2 0 -12 -10 -23 -22z"/>
<path d="M580 350 c0 -5 -15 -16 -32 -24 -18 -8 -28 -15 -21 -15 7 -1 10 -7 7
-15 -3 -8 -1 -17 4 -20 5 -3 8 5 7 19 -2 17 1 22 12 18 12 -5 12 -7 1 -14 -11
-8 -11 -10 0 -18 11 -7 11 -9 -2 -14 -21 -8 -21 -36 0 -44 13 -5 13 -7 2 -14
-11 -8 -11 -10 1 -18 11 -7 11 -9 0 -14 -12 -5 -12 -7 -1 -15 11 -7 11 -10 -2
-15 -9 -4 -16 -12 -16 -18 0 -15 50 -62 58 -54 4 3 0 10 -8 15 -21 13 -24 239
-3 247 15 6 18 23 3 23 -5 0 -10 -4 -10 -10z"/>
<path d="M441 323 c-19 -13 -41 -21 -48 -18 -8 2 -11 0 -8 -5 4 -6 -7 -10 -24
-10 -17 0 -31 -3 -31 -7 0 -14 49 -88 50 -75 0 6 7 12 16 12 9 0 22 7 29 16 8
11 19 14 33 10 23 -8 29 -30 12 -41 -5 -3 -10 -11 -10 -17 0 -6 9 -1 20 12 12
13 20 18 20 10 0 -7 2 -11 5 -8 7 7 -15 137 -24 142 -3 1 -22 -8 -40 -21z"/>
<path d="M315 330 c-3 -6 1 -7 9 -4 10 4 16 1 16 -7 0 -10 3 -10 8 -3 4 6 14
14 22 17 8 3 1 6 -17 6 -17 1 -35 -3 -38 -9z"/>
<path d="M165 271 c-4 -8 -8 -30 -9 -50 l-2 -36 47 0 c46 0 58 16 23 29 -10 4
-13 13 -9 25 3 12 0 21 -10 25 -8 3 -15 1 -15 -4 0 -6 6 -10 13 -10 8 0 7 -4
-3 -10 -13 -9 -13 -12 3 -21 9 -5 17 -15 17 -22 0 -7 -4 -6 -10 3 -7 11 -12
12 -17 4 -6 -9 -11 -8 -20 1 -10 11 -10 15 0 19 9 5 9 8 -2 12 -10 5 -10 8 -1
14 7 4 10 14 8 21 -4 11 -6 11 -13 0z"/>
<path d="M431 174 c0 -11 3 -14 6 -6 3 7 2 16 -1 19 -3 4 -6 -2 -5 -13z"/>
<path d="M530 81 c-5 -11 -6 -22 -1 -25 13 -8 20 4 14 22 -4 10 10 0 31 -22
20 -21 40 -36 43 -33 5 5 -64 77 -73 77 -2 0 -8 -9 -14 -19z"/>
<path d="M497 32 c-21 -23 -22 -33 -3 -26 8 3 16 14 19 25 6 24 4 24 -16 1z"/>
</g>
</svg>
